<svg xmlns="http://www.w3.org/2000/svg" xmlns:xlink="http://www.w3.org/1999/xlink" id="processonSvg1000" viewBox="164.0 58.0 342.0 485.5" width="342.0" height="485.5"><defs id="ProcessOnDefs1001"><marker id="ProcessOnMarker1011" markerUnits="userSpaceOnUse" orient="auto" markerWidth="16.23606797749979" markerHeight="10.550836550532098" viewBox="-1.0 -1.3763819204711736 16.23606797749979 10.550836550532098" refX="-1.0" refY="3.8990363547948754"><path id="ProcessOnPath1012" d="M12.0 3.8990363547948754L0.0 7.798072709589751V0.0Z" stroke="#323232" stroke-width="2.0" fill="#323232" transform="matrix(1.0,0.0,0.0,1.0,0.0,0.0)"/></marker><marker id="ProcessOnMarker1027" markerUnits="userSpaceOnUse" orient="auto" markerWidth="16.23606797749979" markerHeight="10.550836550532098" viewBox="-1.0 -1.3763819204711736 16.23606797749979 10.550836550532098" refX="-1.0" refY="3.8990363547948754"><path id="ProcessOnPath1028" d="M12.0 3.8990363547948754L0.0 7.798072709589751V0.0Z" stroke="#323232" stroke-width="2.0" fill="#323232" transform="matrix(1.0,0.0,0.0,1.0,0.0,0.0)"/></marker><marker id="ProcessOnMarker1039" markerUnits="userSpaceOnUse" orient="auto" markerWidth="16.23606797749979" markerHeight="10.550836550532098" viewBox="-1.0 -1.3763819204711736 16.23606797749979 10.550836550532098" refX="-1.0" refY="3.8990363547948754"><path id="ProcessOnPath1040" d="M12.0 3.8990363547948754L0.0 7.798072709589751V0.0Z" stroke="#323232" stroke-width="2.0" fill="#323232" transform="matrix(1.0,0.0,0.0,1.0,0.0,0.0)"/></marker></defs><g id="ProcessOnG1002"><path id="ProcessOnPath1003" d="M164.0 58.0H506.0V543.5H164.0V58.0Z" fill="none"/><g id="ProcessOnG1004"><g id="ProcessOnG1005" transform="matrix(1.0,0.0,0.0,1.0,184.0,78.0)" opacity="1.0"><path id="ProcessOnPath1006" d="M0.0 0.0L302.0 0.0L302.0 44.0L0.0 44.0Z" stroke="#323232" stroke-width="2.0" stroke-dasharray="none" opacity="1.0" fill="#99ff33"/><g id="ProcessOnG1007" transform="matrix(1.0,0.0,0.0,1.0,10.0,13.875)"><text id="ProcessOnText1008" fill="#000000" font-size="13" x="140.0" y="13.325" font-family="微软雅黑" font-weight="normal" font-style="normal" text-decoration="none" family="微软雅黑" text-anchor="middle" size="13">mongoose.Schema(optObj)</text></g></g><g id="ProcessOnG1009"><path id="ProcessOnPath1010" d="M335.0 122.0L335.0 163.75L335.0 163.75L335.0 190.2639320225002" stroke="#323232" stroke-width="2.0" stroke-dasharray="none" fill="none" marker-end="url(#ProcessOnMarker1011)"/></g><g id="ProcessOnG1013" transform="matrix(1.0,0.0,0.0,1.0,344.0,152.0)" opacity="1.0"><path id="ProcessOnPath1014" d="M0.0 0.0L74.0 0.0L74.0 20.0L0.0 20.0Z" stroke="none" stroke-width="0.0" stroke-dasharray="none" opacity="1.0" fill="none"/><g id="ProcessOnG1015" transform="matrix(1.0,0.0,0.0,1.0,0.0,1.875)"><text id="ProcessOnText1016" fill="#ff0000" font-size="13" x="0.0" y="13.325" font-family="微软雅黑" font-weight="normal" font-style="normal" text-decoration="none" family="微软雅黑" text-anchor="start" size="13">carSchema</text></g></g><g id="ProcessOnG1017" transform="matrix(1.0,0.0,0.0,1.0,184.0,205.5)" opacity="1.0"><path id="ProcessOnPath1018" d="M0.0 0.0L302.0 0.0L302.0 44.0L0.0 44.0Z" stroke="#323232" stroke-width="2.0" stroke-dasharray="none" opacity="1.0" fill="#99ff33"/><g id="ProcessOnG1019" transform="matrix(1.0,0.0,0.0,1.0,10.0,13.875)"><text id="ProcessOnText1020" fill="#000000" font-size="13" x="140.0" y="13.325" font-family="微软雅黑" font-weight="normal" font-style="normal" text-decoration="none" family="微软雅黑" text-anchor="middle" size="13">mongoose.model(name, carSchema)</text></g></g><g id="ProcessOnG1021" transform="matrix(1.0,0.0,0.0,1.0,184.0,340.5)" opacity="1.0"><path id="ProcessOnPath1022" d="M0.0 0.0L302.0 0.0L302.0 44.0L0.0 44.0Z" stroke="#323232" stroke-width="2.0" stroke-dasharray="none" opacity="1.0" fill="#99ff33"/><g id="ProcessOnG1023" transform="matrix(1.0,0.0,0.0,1.0,10.0,13.875)"><text id="ProcessOnText1024" fill="#000000" font-size="13" x="140.0" y="13.325" font-family="微软雅黑" font-weight="normal" font-style="normal" text-decoration="none" family="微软雅黑" text-anchor="middle" size="13">new carModel(carOptObj)</text></g></g><g id="ProcessOnG1025"><path id="ProcessOnPath1026" d="M335.0 249.5L335.0 295.0L335.0 295.0L335.0 325.2639320225002" stroke="#323232" stroke-width="2.0" stroke-dasharray="none" fill="none" marker-end="url(#ProcessOnMarker1027)"/></g><g id="ProcessOnG1029" transform="matrix(1.0,0.0,0.0,1.0,344.0,283.5)" opacity="1.0"><path id="ProcessOnPath1030" d="M0.0 0.0L74.0 0.0L74.0 20.0L0.0 20.0Z" stroke="none" stroke-width="0.0" stroke-dasharray="none" opacity="1.0" fill="none"/><g id="ProcessOnG1031" transform="matrix(1.0,0.0,0.0,1.0,0.0,1.875)"><text id="ProcessOnText1032" fill="#ff0000" font-size="13" x="0.0" y="13.325" font-family="微软雅黑" font-weight="normal" font-style="normal" text-decoration="none" family="微软雅黑" text-anchor="start" size="13">carModel</text></g></g><g id="ProcessOnG1033" transform="matrix(1.0,0.0,0.0,1.0,184.0,479.5)" opacity="1.0"><path id="ProcessOnPath1034" d="M0.0 0.0L302.0 0.0L302.0 44.0L0.0 44.0Z" stroke="#323232" stroke-width="2.0" stroke-dasharray="none" opacity="1.0" fill="#99ff33"/><g id="ProcessOnG1035" transform="matrix(1.0,0.0,0.0,1.0,10.0,13.875)"><text id="ProcessOnText1036" fill="#000000" font-size="13" x="140.0" y="13.325" font-family="微软雅黑" font-weight="normal" font-style="normal" text-decoration="none" family="微软雅黑" text-anchor="middle" size="13">car</text></g></g><g id="ProcessOnG1037"><path id="ProcessOnPath1038" d="M335.0 384.5L335.0 432.0L335.0 432.0L335.0 464.2639320225002" stroke="#323232" stroke-width="2.0" stroke-dasharray="none" fill="none" marker-end="url(#ProcessOnMarker1039)"/></g></g></g></svg>