<svg xmlns="http://www.w3.org/2000/svg" xmlns:xlink="http://www.w3.org/1999/xlink" id="processonSvg1000" viewBox="301.0 77.0 300.0 300.0" width="300.0" height="300.0"><defs id="ProcessOnDefs1001"/><g id="ProcessOnG1002"><path id="ProcessOnPath1003" d="M301.0 77.0H601.0V377.0H301.0V77.0Z" fill="none"/><g id="ProcessOnG1004"><g id="ProcessOnG1005" transform="matrix(1.0,0.0,0.0,1.0,321.0,97.0)" opacity="1.0"><path id="ProcessOnPath1006" d="M0.0 130.0C0.0 -43.333333333333336 260.0 -43.333333333333336 260.0 130.0C260.0 303.3333333333333 0.0 303.3333333333333 0.0 130.0Z" stroke="#323232" stroke-width="2.0" stroke-dasharray="none" opacity="1.0" fill="#66ff66"/></g><g id="ProcessOnG1007" transform="matrix(1.0,0.0,0.0,1.0,357.0,123.0)" opacity="1.0"><path id="ProcessOnPath1008" d="M0.0 86.0C0.0 -28.666666666666668 181.0 -28.666666666666668 181.0 86.0C181.0 200.66666666666666 0.0 200.66666666666666 0.0 86.0Z" stroke="#323232" stroke-width="2.0" stroke-dasharray="none" opacity="1.0" fill="#ffff33"/></g><g id="ProcessOnG1009" transform="matrix(1.0,0.0,0.0,1.0,395.0,149.0)" opacity="1.0"><path id="ProcessOnPath1010" d="M0.0 43.0C0.0 -14.333333333333334 86.0 -14.333333333333334 86.0 43.0C86.0 100.33333333333333 0.0 100.33333333333333 0.0 43.0Z" stroke="#323232" stroke-width="2.0" stroke-dasharray="none" opacity="1.0" fill="#ff8000"/><g id="ProcessOnG1011" transform="matrix(1.0,0.0,0.0,1.0,10.0,34.875)"><text id="ProcessOnText1012" fill="#ffffcc" font-size="13" x="32.0" y="13.325" font-family="微软雅黑" font-weight="bold" font-style="normal" text-decoration="none" family="微软雅黑" text-anchor="middle" size="13">document</text></g></g><g id="ProcessOnG1013" transform="matrix(1.0,0.0,0.0,1.0,395.0,316.0)" opacity="1.0"><path id="ProcessOnPath1014" d="M0.0 0.0L117.0 0.0L117.0 25.0L0.0 25.0Z" stroke="none" stroke-width="0.0" stroke-dasharray="none" opacity="1.0" fill="none"/><g id="ProcessOnG1015" transform="matrix(1.0,0.0,0.0,1.0,0.0,0.0)"><text id="ProcessOnText1016" fill="#000000" font-size="20" x="57.5" y="20.5" font-family="微软雅黑" font-weight="bold" font-style="normal" text-decoration="none" family="微软雅黑" text-anchor="middle" size="20">Schema</text></g></g><g id="ProcessOnG1017" transform="matrix(1.0,0.0,0.0,1.0,392.5,246.0)" opacity="1.0"><path id="ProcessOnPath1018" d="M0.0 0.0L117.0 0.0L117.0 25.0L0.0 25.0Z" stroke="none" stroke-width="0.0" stroke-dasharray="none" opacity="1.0" fill="none"/><g id="ProcessOnG1019" transform="matrix(1.0,0.0,0.0,1.0,0.0,0.0)"><text id="ProcessOnText1020" fill="#000000" font-size="20" x="57.5" y="20.5" font-family="微软雅黑" font-weight="bold" font-style="normal" text-decoration="none" family="微软雅黑" text-anchor="middle" size="20">Model</text></g></g></g></g></svg>